<svg width="204" height="149" viewBox="0 0 204 149" fill="none" xmlns="http://www.w3.org/2000/svg">
<path d="M98.8207 52.957V79.0262H46.5511C36.857 79.0262 29.1279 86.7552 29.1279 96.3183V105.095H3.05859V96.4493C3.05859 72.4761 22.5778 52.957 46.5511 52.957H98.8207ZM98.8207 96.4493V105.095C98.8207 129.199 79.3015 148.588 55.1972 148.588H3.05859V122.518H55.3282C64.8913 122.518 72.6204 114.789 72.6204 105.226V96.4493H98.8207Z" fill="white"/>
<path d="M202.959 96.4493C202.959 120.422 183.439 139.941 159.466 139.941H133.266V148.588H107.196V113.872H159.466C169.029 113.872 176.889 106.012 176.889 96.4493C176.889 86.7552 169.029 79.0262 159.466 79.0262H97.8392V52.957H159.466C183.439 52.957 202.959 72.4761 202.959 96.4493Z" fill="white"/>
<path d="M2.71847 36V12.9812H10.6268C12.3214 12.9812 13.8513 13.2166 15.2164 13.6873C16.605 14.1345 17.7113 14.8995 18.535 15.9822C19.3588 17.0648 19.7707 18.5359 19.7707 20.3953C19.7707 22.184 19.3588 23.6551 18.535 24.8084C17.7113 25.9617 16.6168 26.8207 15.2517 27.3856C13.8866 27.927 12.392 28.1976 10.768 28.1976H7.90829V36H2.71847ZM7.90829 24.067H10.4502C11.886 24.067 12.9451 23.7492 13.6277 23.1137C14.3338 22.4782 14.6868 21.5721 14.6868 20.3953C14.6868 19.1714 14.3102 18.324 13.5571 17.8533C12.8039 17.359 11.7212 17.1119 10.309 17.1119H7.90829V24.067ZM33.1055 36.4237C31.0342 36.4237 29.2102 35.9412 27.6332 34.9762C26.0798 34.0112 24.8559 32.6343 23.9615 30.8455C23.0907 29.0567 22.6552 26.9031 22.6552 24.3847C22.6552 21.8898 23.0907 19.7598 23.9615 17.9945C24.8559 16.2293 26.0798 14.8877 27.6332 13.9698C29.2102 13.0283 31.0342 12.5576 33.1055 12.5576C35.1767 12.5576 37.0008 13.0283 38.5777 13.9698C40.1547 14.8877 41.3786 16.2293 42.2494 17.9945C43.1203 19.7598 43.5557 21.8898 43.5557 24.3847C43.5557 26.9031 43.1203 29.0567 42.2494 30.8455C41.3786 32.6343 40.1547 34.0112 38.5777 34.9762C37.0008 35.9412 35.1767 36.4237 33.1055 36.4237ZM33.1055 31.9399C34.1646 31.9399 35.0708 31.634 35.8239 31.022C36.6006 30.3865 37.1891 29.5039 37.5892 28.3742C38.0128 27.2444 38.2247 25.9146 38.2247 24.3847C38.2247 22.8548 38.0128 21.5485 37.5892 20.4659C37.1891 19.3596 36.6006 18.5241 35.8239 17.9592C35.0708 17.3708 34.1646 17.0766 33.1055 17.0766C32.0699 17.0766 31.1637 17.3708 30.387 17.9592C29.6103 18.5241 29.0101 19.3596 28.5864 20.4659C28.1863 21.5485 27.9863 22.8548 27.9863 24.3847C27.9863 25.9146 28.1863 27.2444 28.5864 28.3742C29.0101 29.5039 29.6103 30.3865 30.387 31.022C31.1637 31.634 32.0699 31.9399 33.1055 31.9399ZM49.7567 36L45.5907 12.9812H50.9923L52.5104 23.7139C52.6752 24.9378 52.8282 26.1617 52.9694 27.3856C53.1342 28.586 53.2754 29.8217 53.3931 31.0926H53.5343C53.7461 29.8217 53.9579 28.5742 54.1698 27.3503C54.4051 26.1264 54.6405 24.9143 54.8759 23.7139L57.3119 12.9812H61.9368L64.267 23.7139C64.5023 24.8907 64.7377 26.1029 64.973 27.3503C65.2084 28.5742 65.432 29.8217 65.6438 31.0926H65.7851C65.9027 29.8217 66.0322 28.5742 66.1734 27.3503C66.3382 26.1264 66.4912 24.9143 66.6324 23.7139L68.2564 12.9812H73.3403L69.2096 36H62.5017L60.3481 25.5498C60.1834 24.6789 60.0304 23.7845 59.8892 22.8666C59.7479 21.9487 59.6185 21.0307 59.5008 20.1128H59.3596C59.2419 21.0307 59.1124 21.9487 58.9712 22.8666C58.8535 23.7845 58.7006 24.6789 58.5123 25.5498L56.3587 36H49.7567ZM76.5346 36V12.9812H90.9389V17.359H81.7244V21.984H89.562V26.3265H81.7244V31.6222H91.292V36H76.5346ZM95.8764 36V12.9812H104.173C105.797 12.9812 107.28 13.2048 108.621 13.652C109.963 14.0757 111.034 14.8171 111.834 15.8762C112.634 16.9118 113.035 18.3358 113.035 20.1481C113.035 21.9134 112.634 23.3491 111.834 24.4553C111.034 25.5615 109.963 26.3853 108.621 26.9267C107.28 27.4445 105.797 27.7034 104.173 27.7034H101.066V36H95.8764ZM101.066 23.5727H103.749C105.114 23.5727 106.15 23.2903 106.856 22.7254C107.586 22.137 107.951 21.2779 107.951 20.1481C107.951 19.0184 107.586 18.2299 106.856 17.7827C106.15 17.3355 105.114 17.1119 103.749 17.1119H101.066V23.5727ZM108.339 36L103.22 26.3618L106.821 23.0078L114.164 36H108.339ZM117.528 36V12.9812H131.933V17.359H122.718V21.984H130.556V26.3265H122.718V31.6222H132.286V36H117.528ZM136.87 36V12.9812H143.366C145.72 12.9812 147.756 13.3814 149.474 14.1816C151.216 14.9818 152.557 16.2293 153.499 17.9239C154.44 19.595 154.911 21.7486 154.911 24.3847C154.911 27.0208 154.44 29.1979 153.499 30.9161C152.557 32.6343 151.239 33.917 149.544 34.7643C147.873 35.5881 145.92 36 143.684 36H136.87ZM142.06 31.7987H143.048C144.366 31.7987 145.508 31.5634 146.473 31.0926C147.461 30.6219 148.226 29.8452 148.768 28.7625C149.309 27.6798 149.58 26.2206 149.58 24.3847C149.58 22.5489 149.309 21.1131 148.768 20.0775C148.226 19.0184 147.461 18.277 146.473 17.8533C145.508 17.4061 144.366 17.1825 143.048 17.1825H142.06V31.7987ZM166.348 36V12.9812H174.221C175.822 12.9812 177.257 13.1578 178.528 13.5108C179.823 13.8403 180.835 14.4287 181.565 15.2761C182.318 16.0998 182.694 17.2414 182.694 18.7006C182.694 19.8539 182.435 20.8895 181.918 21.8075C181.4 22.7018 180.658 23.3256 179.693 23.6786V23.8198C180.988 24.1023 182 24.6671 182.73 25.5145C183.459 26.3382 183.824 27.4915 183.824 28.9743C183.824 30.5984 183.424 31.9282 182.624 32.9638C181.823 33.9994 180.741 34.7643 179.376 35.2586C178.034 35.7529 176.539 36 174.892 36H166.348ZM171.538 22.1958H173.974C175.245 22.1958 176.163 21.9487 176.728 21.4544C177.316 20.9601 177.61 20.3011 177.61 19.4773C177.61 18.5829 177.316 17.9475 176.728 17.5709C176.139 17.1943 175.233 17.006 174.009 17.006H171.538V22.1958ZM171.538 31.9752H174.468C175.88 31.9752 176.94 31.7281 177.646 31.2338C178.375 30.716 178.74 29.9276 178.74 28.8684C178.74 27.8799 178.375 27.162 177.646 26.7148C176.94 26.2676 175.88 26.044 174.468 26.044H171.538V31.9752ZM191.058 36V27.8093L184.138 12.9812H189.681L191.728 18.277C192.034 19.1478 192.34 19.9951 192.646 20.8189C192.952 21.6192 193.27 22.4665 193.6 23.3609H193.741C194.094 22.4665 194.423 21.6192 194.729 20.8189C195.059 19.9951 195.377 19.1478 195.683 18.277L197.73 12.9812H203.167L196.247 27.8093V36H191.058Z" fill="white"/>
</svg>
