<svg width="583" height="900" viewBox="0 0 583 900" fill="none" preserveAspectRatio="none" xmlns="http://www.w3.org/2000/svg">
<path d="M111.544 1285L121.638 1254.3C131.491 1223.61 151.679 1162.21 143.508 1101.1C135.577 1039.85 99.5269 979.027 75.9743 917.776C52.1813 856.667 41.1259 795.272 35.1176 734.163C29.1093 672.912 28.1479 612.088 56.2669 550.837C84.3859 489.728 141.105 428.333 156.005 367.224C170.906 305.973 143.508 245.149 110.823 183.898C77.8969 122.789 39.4436 61.3944 20.2169 30.6973L0.990234 0H587.404V30.6973C587.404 61.3944 587.404 122.789 587.404 183.898C587.404 245.149 587.404 305.973 587.404 367.224C587.404 428.333 587.404 489.728 587.404 550.837C587.404 612.088 587.404 672.912 587.404 734.163C587.404 795.272 587.404 856.667 587.404 917.776C587.404 979.027 587.404 1039.85 587.404 1101.1C587.404 1162.21 587.404 1223.61 587.404 1254.3V1285H111.544Z" fill="#8973FC"/>
<path d="M145.19 1285L148.074 1254.3C150.718 1223.61 156.486 1162.21 172.107 1101.1C187.729 1039.85 213.204 979.027 214.887 917.776C216.569 856.667 193.978 795.272 171.627 734.163C149.276 672.912 126.684 612.088 140.864 550.837C154.803 489.728 205.273 428.333 212.002 367.224C218.972 305.973 181.961 245.149 178.356 183.898C174.751 122.789 204.552 61.3944 219.212 30.6973L234.113 0H587.403V30.6973C587.403 61.3944 587.403 122.789 587.403 183.898C587.403 245.149 587.403 305.973 587.403 367.224C587.403 428.333 587.403 489.728 587.403 550.837C587.403 612.088 587.403 672.912 587.403 734.163C587.403 795.272 587.403 856.667 587.403 917.776C587.403 979.027 587.403 1039.85 587.403 1101.1C587.403 1162.21 587.403 1223.61 587.403 1254.3V1285H145.19Z" fill="#6C53F8"/>
<path d="M272.567 1285L260.069 1254.3C247.812 1223.61 222.817 1162.21 215.607 1101.1C208.397 1039.85 218.972 979.027 244.447 917.776C270.163 856.667 311.02 795.272 312.942 734.163C315.105 672.912 278.094 612.088 276.892 550.837C275.691 489.728 310.299 428.333 318.951 367.224C327.843 305.973 311.02 245.149 298.522 183.898C286.265 122.789 278.094 61.3944 274.249 30.6973L270.163 0H587.403V30.6973C587.403 61.3944 587.403 122.789 587.403 183.898C587.403 245.149 587.403 305.973 587.403 367.224C587.403 428.333 587.403 489.728 587.403 550.837C587.403 612.088 587.403 672.912 587.403 734.163C587.403 795.272 587.403 856.667 587.403 917.776C587.403 979.027 587.403 1039.85 587.403 1101.1C587.403 1162.21 587.403 1223.61 587.403 1254.3V1285H272.567Z" fill="#4A2EF2"/>
<path d="M397.541 1285L401.146 1254.3C404.751 1223.61 411.961 1162.21 401.867 1101.1C392.013 1039.85 364.615 979.027 367.499 917.776C370.383 856.667 403.068 795.272 410.038 734.163C416.767 672.912 397.541 612.088 399.223 550.837C400.665 489.728 423.256 428.333 417.488 367.224C411.961 305.973 378.314 245.149 353.8 183.898C329.526 122.789 314.145 61.3944 306.695 30.6973L299.004 0H587.404V30.6973C587.404 61.3944 587.404 122.789 587.404 183.898C587.404 245.149 587.404 305.973 587.404 367.224C587.404 428.333 587.404 489.728 587.404 550.837C587.404 612.088 587.404 672.912 587.404 734.163C587.404 795.272 587.404 856.667 587.404 917.776C587.404 979.027 587.404 1039.85 587.404 1101.1C587.404 1162.21 587.404 1223.61 587.404 1254.3V1285H397.541Z" fill="#3E27D3"/>
<path d="M431.188 1285L446.088 1254.3C460.749 1223.61 490.55 1162.21 498 1101.1C505.691 1039.85 491.271 979.027 481.657 917.776C472.044 856.667 467.238 795.272 472.525 734.163C477.572 672.912 492.953 612.088 502.567 550.837C512.18 489.728 516.025 428.333 500.403 367.224C484.782 305.973 449.693 245.149 444.406 183.898C439.118 122.789 464.113 61.3944 476.37 30.6973L488.867 0H587.404V30.6973C587.404 61.3944 587.404 122.789 587.404 183.898C587.404 245.149 587.404 305.973 587.404 367.224C587.404 428.333 587.404 489.728 587.404 550.837C587.404 612.088 587.404 672.912 587.404 734.163C587.404 795.272 587.404 856.667 587.404 917.776C587.404 979.027 587.404 1039.85 587.404 1101.1C587.404 1162.21 587.404 1223.61 587.404 1254.3V1285H431.188Z" fill="#3320B4"/>
</svg>
