<svg width="375" height="222" viewBox="0 0 375 222" preserveAspectRatio="none" fill="none" xmlns="http://www.w3.org/2000/svg">
<path d="M0 42.73L11.61 46.552C23.22 50.283 46.44 57.927 69.552 54.833C92.718 51.83 115.722 38.18 138.888 29.262C162 20.253 185.22 16.067 208.332 13.792C231.498 11.517 254.502 11.153 277.668 21.8C300.78 32.447 324 53.923 347.112 59.565C370.278 65.207 393.282 54.833 416.448 42.457C439.56 29.99 462.78 15.43 474.39 8.15L486 0.869995V222.91H474.39C462.78 222.91 439.56 222.91 416.448 222.91C393.282 222.91 370.278 222.91 347.112 222.91C324 222.91 300.78 222.91 277.668 222.91C254.502 222.91 231.498 222.91 208.332 222.91C185.22 222.91 162 222.91 138.888 222.91C115.722 222.91 92.718 222.91 69.552 222.91C46.44 222.91 23.22 222.91 11.61 222.91H0L0 42.73Z" fill="#8973FC"/>
<path d="M0 55.47L11.61 56.562C23.22 57.563 46.44 59.747 69.552 65.662C92.718 71.577 115.722 81.223 138.888 81.86C162 82.497 185.22 73.943 208.332 65.48C231.498 57.017 254.502 48.463 277.668 53.832C300.78 59.11 324 78.2199 347.112 80.768C370.278 83.4069 393.282 69.393 416.448 68.028C439.56 66.663 462.78 77.9469 474.39 83.4979L486 89.14V222.91H474.39C462.78 222.91 439.56 222.91 416.448 222.91C393.282 222.91 370.278 222.91 347.112 222.91C324 222.91 300.78 222.91 277.668 222.91C254.502 222.91 231.498 222.91 208.332 222.91C185.22 222.91 162 222.91 138.888 222.91C115.722 222.91 92.718 222.91 69.552 222.91C46.44 222.91 23.22 222.91 11.61 222.91H0L0 55.47Z" fill="#6C53F8"/>
<path d="M0 103.7L11.61 98.968C23.22 94.327 46.44 84.863 69.552 82.133C92.718 79.403 115.722 83.407 138.888 93.053C162 102.79 185.22 118.26 208.332 118.988C231.498 119.807 254.502 105.793 277.668 105.338C300.78 104.883 324 117.987 347.112 121.263C370.278 124.63 393.282 118.26 416.448 113.528C439.56 108.887 462.78 105.793 474.39 104.337L486 102.79V222.91H474.39C462.78 222.91 439.56 222.91 416.448 222.91C393.282 222.91 370.278 222.91 347.112 222.91C324 222.91 300.78 222.91 277.668 222.91C254.502 222.91 231.498 222.91 208.332 222.91C185.22 222.91 162 222.91 138.888 222.91C115.722 222.91 92.718 222.91 69.552 222.91C46.44 222.91 23.22 222.91 11.61 222.91H0L0 103.7Z" fill="#4A2EF2"/>
<path d="M0 151.02L11.61 152.385C23.22 153.75 46.44 156.48 69.552 152.658C92.718 148.927 115.722 138.553 138.888 139.645C162 140.737 185.22 153.113 208.332 155.752C231.498 158.3 254.502 151.02 277.668 151.657C300.78 152.203 324 160.757 347.112 158.573C370.278 156.48 393.282 143.74 416.448 134.458C439.56 125.267 462.78 119.443 474.39 116.622L486 113.71V222.91H474.39C462.78 222.91 439.56 222.91 416.448 222.91C393.282 222.91 370.278 222.91 347.112 222.91C324 222.91 300.78 222.91 277.668 222.91C254.502 222.91 231.498 222.91 208.332 222.91C185.22 222.91 162 222.91 138.888 222.91C115.722 222.91 92.718 222.91 69.552 222.91C46.44 222.91 23.22 222.91 11.61 222.91H0L0 151.02Z" fill="#3E27D3"/>
<path d="M0 163.76L11.61 169.402C23.22 174.953 46.44 186.237 69.552 189.058C92.718 191.97 115.722 186.51 138.888 182.87C162 179.23 185.22 177.41 208.332 179.412C231.498 181.323 254.502 187.147 277.668 190.787C300.78 194.427 324 195.883 347.112 189.968C370.278 184.053 393.282 170.767 416.448 168.765C439.56 166.763 462.78 176.227 474.39 180.868L486 185.6V222.91H474.39C462.78 222.91 439.56 222.91 416.448 222.91C393.282 222.91 370.278 222.91 347.112 222.91C324 222.91 300.78 222.91 277.668 222.91C254.502 222.91 231.498 222.91 208.332 222.91C185.22 222.91 162 222.91 138.888 222.91C115.722 222.91 92.718 222.91 69.552 222.91C46.44 222.91 23.22 222.91 11.61 222.91H0L0 163.76Z" fill="#3320B4"/>
</svg>
